<svg xmlns="http://www.w3.org/2000/svg" viewBox="0 0 14.18 15"><defs><style>.cls-1{fill:#ffffff;}</style></defs><title>vlozheniye</title><g id="Слой_2"><g id="_05"><path class="cls-1" d="M4.59,15A4.58,4.58,0,0,1,1.3,7.22l.08-.08L7.53,1a3.24,3.24,0,0,1,4.68,4.49l-.1.1L6,11.73a1.9,1.9,0,0,1-1.33.58,1.81,1.81,0,0,1-1.36-.53,1.9,1.9,0,0,1-.06-2.69L8.94,3.36a.57.57,0,0,1,.81.81L4.08,9.84a.76.76,0,0,0-.25.58.73.73,0,0,0,.24.54.79.79,0,0,0,.54.21.77.77,0,0,0,.54-.24l6.16-6.15A2.16,2.16,0,0,0,12,3.2a2.07,2.07,0,0,0-.65-1.48,2.11,2.11,0,0,0-3,.07L2.19,8a3.5,3.5,0,0,0-1,2.51,3.4,3.4,0,0,0,1,2.42,3.44,3.44,0,0,0,4.87-.06L13.2,6.67a.57.57,0,1,1,.81.81L7.86,13.62A4.53,4.53,0,0,1,4.59,15Z"/></g></g></svg>