<svg width="24" height="25" viewBox="0 0 24 25" fill="none" xmlns="http://www.w3.org/2000/svg">
<path fill-rule="evenodd" clip-rule="evenodd" d="M8.17189 4.0625L8.17189 2.25H6.87189V4.0625H3.54688V4.06262V5.36262V10V20.2459V21.5459H4.84687H18.5594H19.8594V20.2459V10V5.36262V4.06262V4.0625H16.8477V2.25H15.5477V4.0625H8.17189ZM18.5594 8.7V5.36262H4.84687V8.7H18.5594ZM4.84687 10H18.5594V20.2459H4.84687V10ZM8.08984 12.8074H6.69922V11.5074H8.08984V12.8074ZM11.1172 12.8074H12.5078V11.5074H11.1172V12.8074ZM16.9258 12.8074H15.5352V11.5074H16.9258V12.8074ZM6.69922 15.7605H8.08984V14.4605H6.69922V15.7605ZM12.5078 15.7605H11.1172V14.4605H12.5078V15.7605ZM15.5352 15.7605H16.9258V14.4605H15.5352V15.7605ZM8.08984 18.7136H6.69922V17.4136H8.08984V18.7136ZM11.1172 18.7136H12.5078V17.4136H11.1172V18.7136ZM16.9258 18.7136H15.5352V17.4136H16.9258V18.7136Z" fill="#3498FF"/>
</svg>
