<svg width="24" height="24" viewBox="0 0 24 24" fill="none" xmlns="http://www.w3.org/2000/svg">
<path fill-rule="evenodd" clip-rule="evenodd" d="M20.5047 12C20.5047 16.2526 17.0573 19.7 12.8047 19.7C10.8056 19.7 8.98442 18.9382 7.61567 17.689L6.69561 18.6091C8.30032 20.0931 10.4466 21 12.8047 21C17.7752 21 21.8047 16.9706 21.8047 12C21.8047 7.02944 17.7752 3 12.8047 3C7.84455 3 3.82159 7.01256 3.80474 11.9688H1.57812L4.50243 14.4971L7.39062 11.9688H5.10475C5.12159 7.73053 8.56252 4.3 12.8047 4.3C17.0573 4.3 20.5047 7.74741 20.5047 12ZM8.84376 12.6189L17.4455 12.6187L17.4455 11.3188L8.84374 11.3189L8.84376 12.6189Z" fill="#3498FF"/>
</svg>
