<svg xmlns="http://www.w3.org/2000/svg" viewBox="0 0 13.73 16"><defs><style>.cls-1{fill:#ffffff;fill-rule:evenodd;}</style></defs><title>redaktirovat</title><g id="Слой_2"><g id="_05"><path class="cls-1" d="M1,14.84a19.23,19.23,0,0,1,.39-2c.1-.48.1-.59.36-.88.51-.56,1.17-1.45,1.66-2l.68-.82c.57-.7,1.56-1.8,2.06-2.46l.83-1c.43-.55,1.7-1.95,1.89-2.31l1,.73.46.36a3.58,3.58,0,0,1,.46.38l-4.5,5.41L6,10.58c-.09.12-.19.23-.28.34L3.47,13.63a13.49,13.49,0,0,1-1.66.84c-.26.12-.55.28-.81.37ZM10.66,1.31,9.61,2.54A23.43,23.43,0,0,0,11.55,4,3.55,3.55,0,0,1,12,3.42l.48-.63a5.37,5.37,0,0,1-.69-.55l-1.13-.93Zm3,1.65a.62.62,0,0,0-.12-.71,1.64,1.64,0,0,0-.26-.2l-2-1.7C10.42-.29,10.45,0,9.9.64l-.65.76a2.26,2.26,0,0,1-.2.26l-2.53,3C5.75,5.64,4.66,6.85,4,7.74l-.82,1A1.64,1.64,0,0,1,2.92,9L.61,11.81a8.27,8.27,0,0,0-.29,1.54A12.81,12.81,0,0,0,0,15.72.48.48,0,0,0,.66,16l3.28-1.39,2.57-3c.16-.18.26-.29.4-.47.92-1.15,2.09-2.44,3-3.57.14-.18.25-.3.41-.48Z"/></g></g></svg>