<svg width="24" height="24" viewBox="0 0 24 24" fill="none" xmlns="http://www.w3.org/2000/svg">
<path fill-rule="evenodd" clip-rule="evenodd" d="M12.951 3.43848C12.951 3.96369 12.5252 4.38945 12 4.38945C11.4748 4.38945 11.049 3.96369 11.049 3.43848C11.049 2.91327 11.4748 2.4875 12 2.4875C12.5252 2.4875 12.951 2.91327 12.951 3.43848ZM14.1343 4.15583C13.8347 5.04729 12.9924 5.68945 12 5.68945C11.0076 5.68945 10.1653 5.04729 9.86574 4.15583H4.925V20.2457H18.6375V4.15583H14.1343ZM14.1748 2.85583C13.9181 1.89509 13.0417 1.1875 12 1.1875C10.9583 1.1875 10.0819 1.89509 9.82516 2.85583H3.625V21.5457H19.9375V2.85583H14.1748ZM9.68359 10.6283H16.9258V9.32833L9.68359 9.32833V10.6283ZM8.02734 10.6283H6.63672V9.32833H8.02734V10.6283ZM9.68359 13.6596H16.9258V12.3596L9.68359 12.3596V13.6596ZM8.02734 13.6596H6.63672V12.3596H8.02734V13.6596ZM9.68359 16.7533H16.9258V15.4533L9.68359 15.4533V16.7533ZM8.02734 16.7533H6.63672V15.4533H8.02734V16.7533Z" fill="#3498FF"/>
</svg>
