<svg width="24" height="24" viewBox="0 0 24 24" fill="none" xmlns="http://www.w3.org/2000/svg">
<path fill-rule="evenodd" clip-rule="evenodd" d="M20.5047 12C20.5047 16.2526 17.0573 19.7 12.8047 19.7C10.8056 19.7 8.98442 18.9382 7.61567 17.689L6.69561 18.6091C8.30032 20.0931 10.4466 21 12.8047 21C17.7752 21 21.8047 16.9706 21.8047 12C21.8047 7.02944 17.7752 3 12.8047 3C7.83412 3 3.80469 7.02944 3.80469 12H1.54688L4.47118 14.5283L7.35938 12H5.10469C5.10469 7.74741 8.55209 4.3 12.8047 4.3C17.0573 4.3 20.5047 7.74741 20.5047 12ZM15.4095 16.4596L12.1547 12.7445L12.1547 7H13.4547V12.2555L16.3873 15.6029L15.4095 16.4596Z" fill="#3498FF"/>
</svg>
