<svg xmlns="http://www.w3.org/2000/svg" viewBox="0 0 11.44 15"><defs><style>.cls-1{fill:#FFFFFF;}</style></defs><title>pin</title><g id="Слой_2" ><g id="_05"><path class="cls-1" d="M5.72,10.21a.44.44,0,0,0-.44.44v3.91a.44.44,0,0,0,.88,0V10.65A.44.44,0,0,0,5.72,10.21Z"/><path class="cls-1" d="M11.37,9.14A6.35,6.35,0,0,0,8,6.47V3.07L10,.73A.43.43,0,0,0,10,.26.43.43,0,0,0,9.64,0H1.8a.43.43,0,0,0-.4.26.43.43,0,0,0,.06.47l2,2.34v3.4A6.34,6.34,0,0,0,.06,9.14a.45.45,0,0,0,0,.45.42.42,0,0,0,.38.22H11a.42.42,0,0,0,.38-.22A.43.43,0,0,0,11.37,9.14ZM2.76.88H8.68L7.31,2.48H5.4a.45.45,0,0,0,0,.89H7.09V6.23a7.65,7.65,0,0,0-1.36-.14,7.78,7.78,0,0,0-1.38.14V2.91a.48.48,0,0,0-.1-.29Zm-1.46,8A5.77,5.77,0,0,1,5.73,7a5.72,5.72,0,0,1,4.4,2Z"/></g></g></svg>