<svg id="Слой_1" xmlns="http://www.w3.org/2000/svg" viewBox="0 0 33.245 33.245"><style>.st0{fill:#201600}</style><path class="st0" d="M24.841 15.311h-6.907V8.404c0-.721-.59-1.312-1.312-1.312-.722 0-1.312.59-1.312 1.312v6.907H8.404c-.721 0-1.312.59-1.312 1.312 0 .722.59 1.312 1.312 1.312h6.907v6.907c0 .721.59 1.312 1.312 1.312.721 0 1.312-.59 1.312-1.312v-6.907h6.907c.722 0 1.312-.59 1.312-1.312a1.317 1.317 0 0 0-1.313-1.312z"/><path class="st0" d="M28.382 4.863c-6.483-6.484-17.035-6.484-23.519 0-6.484 6.484-6.484 17.035 0 23.519 3.242 3.242 7.5 4.863 11.759 4.863s8.518-1.621 11.759-4.863c6.485-6.484 6.485-17.034.001-23.519zm-1.653 21.866c-5.572 5.571-14.639 5.572-20.212 0-5.572-5.573-5.572-14.64 0-20.212 2.786-2.786 6.446-4.179 10.106-4.179s7.32 1.393 10.106 4.179c5.572 5.572 5.572 14.639 0 20.212z"/></svg>